<svg version="1.1" id="Layer_1" xmlns="http://www.w3.org/2000/svg" xmlns:xlink="http://www.w3.org/1999/xlink" x="0px" y="0px" width="100%" viewBox="0 0 512 512" enable-background="new 0 0 512 512" xml:space="preserve">

<path fill="#020101" opacity="1.000000" stroke="none" d="
M278.478760,40.452507 
	C300.502289,21.648523 325.880463,10.825153 353.716278,5.433575 
	C369.173737,2.439596 384.767181,1.442821 400.031830,6.282098 
	C411.697693,9.980473 413.669800,14.049973 414.859100,25.991747 
	C415.681244,34.246944 415.594666,42.591106 415.991180,50.891830 
	C416.052704,52.179684 416.218872,53.633652 416.859009,54.696037 
	C422.654480,64.314102 423.102325,75.039810 424.206421,85.815353 
	C424.827667,91.878433 427.153137,98.067368 429.971710,103.551590 
	C440.810425,124.640800 454.389679,143.877518 471.116547,160.757874 
	C478.466766,168.175537 486.027222,175.399994 493.749481,182.429565 
	C500.987885,189.018692 501.936188,194.516663 496.248260,203.026962 
	C490.486389,211.647919 482.388519,217.747269 473.616516,222.982285 
	C468.773346,225.872604 463.764801,228.485748 459.510223,230.846786 
	C458.991486,241.938873 457.640381,252.693619 458.232910,263.340210 
	C458.807648,273.668121 460.735504,284.042480 463.204315,294.118286 
	C468.637085,316.291016 476.441284,337.658691 488.598389,357.125854 
	C492.244598,362.964447 497.026764,368.118774 501.509186,373.399261 
	C503.666870,375.941193 504.466949,378.293030 503.202454,381.547455 
	C498.678589,393.190430 489.869690,401.092682 479.474548,406.831879 
	C470.560913,411.753113 460.686920,414.927521 451.276917,418.966034 
	C450.080353,419.479523 448.275208,420.461761 448.183899,421.370667 
	C447.312012,430.047821 441.311310,434.801514 434.765625,438.882050 
	C411.335754,453.488251 385.769165,463.324799 359.392120,470.862305 
	C337.767059,477.041931 315.935730,482.755615 293.888336,487.123413 
	C274.930420,490.879150 255.597412,493.161896 236.319443,494.754089 
	C219.627808,496.132690 202.756851,496.327911 186.008575,495.761932 
	C168.454773,495.168701 150.697174,493.641876 134.993637,484.696167 
	C130.234772,481.985260 126.071892,477.203369 123.273552,472.413391 
	C121.191010,468.848694 119.115288,467.909760 115.677849,467.983368 
	C104.900932,468.214172 94.568153,466.046051 84.563103,462.175873 
	C82.245598,461.279388 79.931541,460.319458 77.746056,459.146240 
	C70.492767,455.252563 68.575531,450.579651 69.032364,442.369843 
	C69.973183,425.462372 71.509361,408.474640 70.741570,391.613678 
	C69.739037,369.598053 65.431953,347.903595 59.459122,326.624664 
	C57.757435,320.562225 55.714771,314.591125 54.159771,308.493652 
	C53.312412,305.171082 51.461365,303.775909 48.278324,302.755554 
	C43.247486,301.143005 38.346767,298.998352 33.599899,296.655548 
	C26.423725,293.113770 24.779987,289.638245 26.173861,281.793762 
	C27.245722,275.761505 28.465305,269.752869 29.755560,263.763092 
	C30.484234,260.380371 29.964750,257.738556 27.037554,255.428040 
	C11.758581,243.367813 6.221338,226.963364 6.011885,208.107788 
	C5.714324,181.320602 14.472112,157.286255 27.986931,134.681976 
	C39.761429,114.988472 54.483822,97.637558 71.497002,82.361038 
	C80.597351,74.189613 90.676636,67.108421 101.821487,58.350727 
	C100.069687,57.229317 98.140038,56.238590 96.500587,54.894020 
	C93.014450,52.034939 92.879509,48.329079 96.581795,46.197239 
	C103.848404,42.013000 111.291550,37.745667 119.197701,35.137970 
	C139.457123,28.455767 160.413712,26.152719 181.612411,29.198217 
	C207.915436,32.977032 231.454651,42.840244 250.033493,62.619225 
	C251.396118,64.069885 252.536209,65.729584 253.473618,66.907448 
	C262.109131,57.731064 270.146179,49.190586 278.478760,40.452507 
M268.489563,69.888458 
	C268.680420,69.615448 268.871277,69.342430 269.551086,68.943611 
	C269.752960,68.684387 269.954834,68.425163 270.619446,67.992493 
	C270.919983,67.821121 271.126770,67.571960 271.855621,66.968575 
	C274.905670,64.651215 277.955719,62.333862 281.660828,59.808468 
	C302.241089,45.374306 325.325165,37.748119 350.897614,34.713654 
	C359.581238,34.735756 368.264862,34.757858 377.756409,34.992481 
	C386.345886,37.188198 394.935364,39.383919 403.590393,41.596390 
	C403.590393,37.223042 403.926056,32.724682 403.516083,28.295345 
	C402.802155,20.582163 401.078857,18.090330 393.350494,17.273069 
	C383.736267,16.256380 373.908020,15.828881 364.298126,16.639666 
	C355.939941,17.344843 347.595703,19.603678 339.527924,22.092154 
	C318.494110,28.579935 299.095551,38.222698 282.409180,53.904095 
	C282.248871,54.262974 282.088562,54.621857 281.992462,54.954220 
	C281.992462,54.954220 281.958130,54.893826 281.379150,54.969067 
	C281.220978,55.300930 281.062775,55.632793 280.975159,55.962227 
	C280.975159,55.962227 280.958160,55.893665 280.379059,55.968941 
	C280.220673,56.300793 280.062256,56.632645 279.915405,56.816097 
	C279.915405,56.816097 279.767395,56.800182 279.161377,57.055511 
	C276.215851,60.191120 273.270355,63.326729 270.002625,66.763687 
	C269.794891,66.982361 269.634338,67.231461 269.138611,67.818474 
	C268.887787,68.052719 268.736115,68.339439 268.216003,69.010582 
	C268.162384,69.359261 268.108765,69.707939 267.692688,69.976852 
	C267.789032,69.974892 267.885345,69.972931 268.489563,69.888458 
M161.865479,112.599846 
	C161.865479,112.599846 161.561798,112.586601 160.934280,112.578102 
	C160.206329,113.252533 159.478363,113.926971 158.597885,114.613037 
	C158.597885,114.613037 158.563507,114.762077 157.958069,114.993515 
	C156.362320,119.998817 154.766571,125.004128 153.003586,130.853851 
	C151.668365,143.750717 152.915237,156.437744 156.115814,169.752716 
	C161.408295,193.393906 171.076202,215.357468 181.231796,237.176743 
	C189.917236,234.874954 197.966217,232.814468 205.954224,230.539810 
	C207.044632,230.229309 207.830780,228.850281 208.706329,227.158768 
	C207.817932,221.392929 206.929535,215.627090 206.031021,208.941711 
	C206.033234,202.335571 206.035461,195.729416 206.662460,188.599136 
	C208.492142,177.405685 210.321808,166.212219 212.085129,155.054764 
	C212.085129,155.054764 212.141190,155.105316 212.707520,154.670975 
	C214.201706,150.133545 215.695877,145.596115 217.115921,141.045486 
	C217.115921,141.045486 217.112503,141.120712 217.657074,140.664658 
	C218.239288,138.908371 218.821503,137.152100 219.454010,135.228210 
	C219.454010,135.228210 219.296066,135.152924 219.911789,134.882736 
	C221.695145,131.322479 223.478500,127.762215 225.241608,124.135391 
	C225.241608,124.135391 225.178329,124.164337 225.752945,123.806686 
	C227.602509,120.630379 229.452087,117.454063 231.307266,114.226189 
	C231.307266,114.226189 231.262756,114.199539 231.842819,113.935463 
	C232.649780,112.696091 233.456757,111.456718 234.259628,110.159630 
	C234.259628,110.159630 234.204147,110.175995 234.805969,109.832108 
	C235.587173,108.679298 236.368362,107.526497 237.613052,105.689720 
	C222.923935,103.111145 209.051895,101.978912 194.336472,104.008018 
	C193.885971,104.084480 193.435455,104.160942 192.177353,104.197556 
	C182.414780,106.767540 172.652222,109.337524 162.961502,111.926445 
	C162.961502,111.926445 162.958420,111.852211 162.372437,111.966293 
	C162.204025,112.278801 162.035614,112.591301 161.865479,112.599846 
M27.774714,239.043060 
	C27.774714,239.043060 27.733932,239.231628 27.924404,239.874313 
	C29.754835,241.881302 31.585266,243.888290 34.236511,246.795273 
	C34.846741,242.386505 35.287861,239.199509 35.965416,235.207214 
	C38.057049,225.123734 39.766857,214.942978 42.306351,204.973572 
	C53.355354,161.597977 72.811630,122.797455 105.272652,91.261917 
	C109.646812,87.012466 114.377136,83.129631 119.146797,78.895721 
	C117.716240,76.850349 116.215256,75.059036 115.108986,73.050339 
	C112.636543,68.561043 110.082672,68.250816 105.761559,71.295990 
	C84.804443,86.064919 65.989250,103.060005 50.400345,123.461594 
	C36.461166,141.704147 24.826870,161.156631 19.864105,184.790924 
	C19.023659,189.862305 17.839743,194.904755 17.410000,200.010712 
	C16.313608,213.037476 17.908352,225.542648 25.917366,236.940414 
	C26.191845,237.229080 26.466324,237.517731 26.946743,238.419281 
	C27.286062,238.638367 27.625381,238.857452 27.774714,239.043060 
M82.042252,396.930115 
	C82.083298,405.610138 82.124336,414.290131 82.034317,423.654999 
	C82.053497,424.118134 82.072678,424.581299 81.963310,425.956970 
	C81.901054,429.796692 81.838806,433.636383 81.239220,437.957001 
	C80.947548,439.760956 80.270866,441.608368 80.468254,443.357117 
	C80.682343,445.253845 81.163322,447.988464 82.469727,448.757233 
	C93.384148,455.179932 105.539001,456.335480 118.372192,456.966278 
	C117.977692,454.991791 117.773521,453.714783 117.465096,452.463440 
	C109.467354,420.016022 101.475563,387.567047 93.428696,355.131805 
	C92.520645,351.471619 91.621727,347.749786 90.147079,344.300903 
	C86.110291,334.859894 81.001549,325.799530 77.835487,316.093170 
	C75.941612,310.287109 74.105560,306.705200 67.597603,307.399841 
	C67.299911,307.431641 67.024307,307.670288 67.356537,307.504913 
	C71.681511,330.156433 75.967064,352.601562 80.202698,375.833313 
	C80.498749,378.205536 80.794792,380.577728 81.012825,383.720276 
	C81.066010,384.491302 81.119194,385.262360 81.055275,386.858490 
	C81.417084,389.904694 81.778900,392.950928 82.042252,396.930115 
M401.146545,247.559265 
	C399.189423,254.330017 397.232300,261.100769 394.985748,268.578033 
	C392.901337,274.476044 390.577240,280.305908 388.868958,286.310944 
	C388.309326,288.278259 389.349152,290.700562 389.657501,292.914795 
	C392.705505,292.231232 397.828156,292.346802 398.451233,290.729187 
	C401.553558,282.674927 403.472260,274.164734 406.270905,265.255463 
	C408.577332,258.811615 410.883789,252.367783 413.645050,245.416489 
	C413.788940,244.282501 413.932831,243.148499 414.506653,241.436203 
	C416.202515,236.090698 418.093811,230.794876 419.472961,225.368881 
	C419.877197,223.778275 419.352783,220.780472 418.325043,220.259262 
	C416.589142,219.378876 413.622101,219.168701 412.073883,220.129242 
	C410.220581,221.279068 408.868073,223.794495 408.080933,225.997955 
	C405.864746,232.201691 404.049561,238.548676 401.853180,245.536377 
	C401.734283,246.010025 401.615387,246.483658 401.146545,247.559265 
M198.284592,319.246887 
	C198.763153,318.836182 199.544647,318.504272 199.675049,318.002991 
	C201.742279,310.055725 203.774323,302.098114 205.663589,294.107239 
	C205.883224,293.178253 205.206085,292.037231 205.290787,290.340393 
	C205.902512,289.470734 206.816635,288.682678 207.076874,287.718170 
	C208.758804,281.484894 210.449585,275.245605 211.800980,268.936188 
	C212.267334,266.758881 211.772278,264.375641 211.716370,262.086487 
	C209.213120,263.059265 206.618164,263.855316 204.248215,265.084991 
	C203.183395,265.637482 202.140869,266.938202 201.817825,268.101959 
	C199.517303,276.388977 197.405426,284.728394 194.919144,293.724701 
	C192.078369,303.414368 189.237595,313.104065 185.948761,323.453430 
	C183.822281,330.389191 181.534332,337.283142 179.717636,344.299133 
	C179.389511,345.566376 180.611389,348.192657 181.780212,348.718414 
	C186.062561,350.644562 191.417404,347.838715 192.766144,343.287231 
	C194.031433,339.017426 195.230270,334.716522 196.182251,330.368835 
	C196.942352,326.897369 197.287369,323.335022 198.284592,319.246887 
M224.783752,92.871819 
	C229.739197,93.482048 234.755325,93.797729 239.629669,94.801674 
	C243.126266,95.521835 245.102905,93.853752 245.534882,91.196663 
	C245.798340,89.576103 244.313965,86.737274 242.818039,85.939606 
	C238.294266,83.527428 233.514572,81.382965 228.595093,79.965416 
	C214.685776,75.957428 200.714615,72.618332 185.922455,74.803146 
	C178.301712,75.928741 170.341614,74.878204 162.768906,76.176369 
	C153.545578,77.757515 144.568481,80.775131 135.484863,83.171417 
	C135.273453,83.866592 135.062042,84.561760 134.850632,85.256927 
	C140.445587,91.299263 145.969940,97.410660 151.726242,103.295166 
	C152.433548,104.018204 154.609879,104.029892 155.718689,103.523834 
	C168.890320,97.512344 182.863327,94.635292 197.890350,92.682793 
	C206.567215,92.665451 215.244064,92.648102 224.783752,92.871819 
M425.128113,119.341454 
	C424.911346,119.165199 424.694580,118.988953 424.477783,118.812714 
	C424.497040,119.339508 424.516296,119.866295 424.565826,121.266823 
	C427.186920,138.792450 429.807983,156.318085 432.500397,174.320770 
	C441.704681,172.687042 445.220459,177.929794 447.566345,184.171814 
	C450.015350,190.688232 452.112518,197.357529 453.968964,204.069107 
	C455.324097,208.968430 456.039825,214.044632 457.172333,219.699875 
	C470.019867,213.588837 481.306519,206.661530 489.510284,194.499802 
	C463.418915,173.318817 442.039825,148.488281 425.128113,119.341454 
M243.130539,73.485695 
	C243.421051,73.529724 243.711578,73.573761 244.002090,73.617790 
	C243.779678,73.280571 243.557266,72.943352 243.063065,72.002319 
	C224.987305,53.300072 202.349945,44.662430 176.141968,41.913948 
	C167.101776,41.959755 158.061569,42.005562 148.170502,42.004105 
	C135.716782,43.473228 123.532303,45.951778 111.973114,50.985077 
	C118.168503,58.262718 123.888977,65.142334 129.863266,71.793968 
	C130.593506,72.607010 132.810425,72.642639 134.123428,72.273659 
	C138.749908,70.973526 143.258911,69.262787 147.855240,67.846573 
	C167.404129,61.823208 187.566605,61.115566 207.529785,63.485851 
	C219.534195,64.911171 231.128769,69.788414 243.130539,73.485695 
M444.305725,377.385132 
	C444.897797,382.910034 445.489868,388.434906 446.003601,394.830292 
	C446.435974,399.034454 446.868347,403.238617 447.337555,407.801117 
	C464.183990,404.005432 478.131714,396.533539 489.287384,384.090057 
	C490.856873,382.339386 491.718903,380.803101 489.761444,378.522247 
	C473.399963,359.457489 463.693420,336.934021 456.305725,313.267670 
	C453.808502,305.267944 451.757172,297.128998 449.310883,288.369080 
	C445.839966,293.064056 443.106354,297.409851 439.703125,301.145630 
	C437.286438,303.798401 436.743713,306.387848 437.158356,309.716827 
	C438.226868,318.296112 439.091797,326.900787 440.030823,335.496094 
	C441.528320,349.203735 443.019958,362.912048 444.305725,377.385132 
M415.740814,140.135941 
	C414.839111,134.380646 413.937408,128.625366 413.036499,122.136604 
	C412.985992,121.406525 412.935486,120.676453 413.084564,119.064911 
	C412.731720,115.678032 412.378906,112.291145 411.999786,107.979172 
	C411.356628,95.781738 411.001770,83.559937 409.973938,71.395012 
	C409.228363,62.571484 404.861359,56.119862 396.491821,51.911873 
	C381.918182,44.584583 366.210419,45.393753 351.176544,46.616043 
	C322.833038,48.920437 297.516998,60.363483 275.451172,78.404694 
	C269.758270,83.059250 264.858398,88.683739 259.594208,93.862671 
	C261.304291,94.890099 262.123505,94.925781 262.902069,94.764786 
	C275.950531,92.066498 289.020416,90.495758 302.429962,91.827713 
	C322.290375,93.800430 338.918762,101.427849 351.125549,117.658806 
	C363.133057,133.624802 369.886749,152.009933 375.708801,170.824615 
	C377.161621,175.519638 378.432892,180.270844 379.902588,185.397354 
	C394.306305,181.749878 408.088501,178.259796 421.963196,174.746292 
	C419.807404,163.134964 417.747925,152.042191 415.740814,140.135941 
M142.903214,124.266716 
	C146.044479,116.005043 145.071762,109.025200 136.972580,103.957069 
	C135.348709,102.940926 134.231689,101.072662 132.974380,99.521576 
	C130.282761,96.200996 127.652206,92.830940 124.963081,89.438828 
	C123.984505,90.009460 123.373016,90.275116 122.869247,90.676117 
	C121.046013,92.127380 119.215569,93.574654 117.464706,95.111023 
	C86.479584,122.300201 66.899063,156.702347 56.210861,195.950165 
	C49.407986,220.930817 44.967438,246.567856 39.826603,271.983185 
	C36.752216,287.182404 37.023872,287.382172 51.902676,291.711304 
	C58.645164,293.673096 65.581245,294.969513 72.910706,296.680084 
	C72.502701,291.637207 72.029976,287.860168 71.920105,284.072632 
	C71.484627,269.060699 72.390312,267.722565 86.872093,263.610626 
	C90.318008,262.632202 91.999451,260.914764 93.094788,257.509705 
	C103.465775,225.269348 119.416916,196.095627 141.740402,170.538742 
	C144.096680,167.841187 145.007339,165.284973 143.656830,161.109558 
	C143.400085,159.094376 143.143341,157.079178 142.752548,154.358505 
	C142.459122,153.217422 142.165695,152.076340 141.988876,150.033875 
	C141.966125,146.705338 141.943375,143.376816 142.054810,139.280563 
	C142.009857,138.505478 141.964890,137.730392 142.019577,136.070480 
	C142.231293,132.403748 142.443008,128.737000 142.903214,124.266716 
M251.003159,310.308441 
	C247.968628,319.090668 245.765625,328.273041 241.763779,336.589844 
	C216.991379,388.072876 154.600204,402.394562 109.817543,367.191986 
	C108.595718,366.231537 107.219002,365.468109 105.096031,364.076141 
	C105.931046,367.347870 106.463417,369.507996 107.033958,371.658020 
	C115.012047,401.722198 123.183617,431.737061 130.854324,461.879425 
	C132.956940,470.141815 137.662079,475.234711 145.523758,477.051208 
	C155.862900,479.440155 166.302765,481.881287 176.833176,482.860748 
	C205.960464,485.570007 235.026779,484.007446 263.982147,479.963287 
	C312.664886,473.163818 359.800629,460.678833 404.896484,441.043671 
	C414.735535,436.759705 423.890289,430.859070 433.200012,425.428375 
	C436.539917,423.480103 437.730164,420.452850 437.242188,416.100830 
	C434.870209,394.946808 433.026489,373.734161 430.872894,352.554779 
	C429.515808,339.208557 427.942474,325.884338 426.414307,312.081787 
	C398.636230,330.382568 369.140533,334.821472 338.483734,323.591156 
	C307.600861,312.277985 289.903992,287.694824 278.235748,257.920624 
	C270.004425,260.090332 262.066406,262.182709 255.595398,263.888397 
	C254.040649,279.758575 252.585342,294.613770 251.003159,310.308441 
M230.670425,138.158676 
	C217.200089,166.357788 214.809509,196.007431 218.491257,226.856033 
	C269.255157,213.744064 319.368195,200.800217 369.463013,187.861069 
	C365.597321,170.992783 356.017365,146.674515 347.830444,132.721756 
	C339.873779,119.161377 329.140259,109.081635 313.533630,104.870049 
	C293.895325,99.570503 274.620636,101.949631 255.466949,107.322334 
	C254.250702,107.663498 253.165237,108.621803 252.130310,109.434792 
	C242.610184,116.913406 236.584167,127.036880 230.670425,138.158676 
M122.765747,252.124405 
	C138.547241,248.028946 154.328751,243.933502 169.612686,239.967163 
	C161.925964,220.293808 154.495438,201.276184 146.960419,181.991135 
	C128.529755,204.110458 114.236603,228.477631 104.876915,256.759094 
	C111.143669,255.139557 116.558327,253.740234 122.765747,252.124405 
z" data-index="1" style="opacity: 1; visibility: visible;"></path>
<path fill="#FDE138" opacity="1.000000" stroke="none" d="
M251.066589,309.888672 
	C252.585342,294.613770 254.040649,279.758575 255.595398,263.888397 
	C262.066406,262.182709 270.004425,260.090332 278.235748,257.920624 
	C289.903992,287.694824 307.600861,312.277985 338.483734,323.591156 
	C369.140533,334.821472 398.636230,330.382568 426.414307,312.081787 
	C427.942474,325.884338 429.515808,339.208557 430.872894,352.554779 
	C433.026489,373.734161 434.870209,394.946808 437.242188,416.100830 
	C437.730164,420.452850 436.539917,423.480103 433.200012,425.428375 
	C423.890289,430.859070 414.735535,436.759705 404.896484,441.043671 
	C359.800629,460.678833 312.664886,473.163818 263.982147,479.963287 
	C235.026779,484.007446 205.960464,485.570007 176.833176,482.860748 
	C166.302765,481.881287 155.862900,479.440155 145.523758,477.051208 
	C137.662079,475.234711 132.956940,470.141815 130.854324,461.879425 
	C123.183617,431.737061 115.012047,401.722198 107.033958,371.658020 
	C106.463417,369.507996 105.931046,367.347870 105.096031,364.076141 
	C107.219002,365.468109 108.595718,366.231537 109.817543,367.191986 
	C154.600204,402.394562 216.991379,388.072876 241.763779,336.589844 
	C245.765625,328.273041 247.968628,319.090668 251.066589,309.888672 
M214.343292,427.099457 
	C229.172791,432.474182 244.669815,434.831299 260.250641,435.020020 
	C270.938538,435.149414 281.780762,433.365936 292.320770,431.266571 
	C300.034119,429.730225 307.474121,426.543579 314.783966,423.489471 
	C316.284882,422.862366 317.843719,419.078949 317.248383,417.616394 
	C316.596649,416.015259 313.560455,415.146393 311.401459,414.496552 
	C310.304596,414.166443 308.831085,414.952148 307.562988,415.346497 
	C278.368317,424.425049 248.931732,424.707794 219.539734,416.865753 
	C211.127853,414.621399 203.274185,410.300751 195.139160,406.994659 
	C192.114243,405.765320 188.412720,403.645020 186.899460,408.332306 
	C186.352722,410.025879 188.035324,413.675659 189.725189,414.643005 
	C197.477600,419.080780 205.592789,422.884827 214.343292,427.099457 
z" data-index="2" style="opacity: 1;"></path>
<path fill="#FDE138" opacity="1.000000" stroke="none" d="
M230.827805,137.818497 
	C236.584167,127.036880 242.610184,116.913406 252.130310,109.434792 
	C253.165237,108.621803 254.250702,107.663498 255.466949,107.322334 
	C274.620636,101.949631 293.895325,99.570503 313.533630,104.870049 
	C329.140259,109.081635 339.873779,119.161377 347.830444,132.721756 
	C356.017365,146.674515 365.597321,170.992783 369.463013,187.861069 
	C319.368195,200.800217 269.255157,213.744064 218.491257,226.856033 
	C214.809509,196.007431 217.200089,166.357788 230.827805,137.818497 
z" data-index="3" style="opacity: 1;"></path>
<path fill="#874A21" opacity="1.000000" stroke="none" d="
M141.919937,136.955307 
	C141.964890,137.730392 142.009857,138.505478 141.757080,139.986572 
	C141.597000,144.106812 141.734634,147.521042 141.872269,150.935257 
	C142.165695,152.076340 142.459122,153.217422 142.598114,155.018097 
	C142.833237,157.781693 143.222794,159.885696 143.612335,161.989700 
	C145.007339,165.284973 144.096680,167.841187 141.740402,170.538742 
	C119.416916,196.095627 103.465775,225.269348 93.094788,257.509705 
	C91.999451,260.914764 90.318008,262.632202 86.872093,263.610626 
	C72.390312,267.722565 71.484627,269.060699 71.920105,284.072632 
	C72.029976,287.860168 72.502701,291.637207 72.910706,296.680084 
	C65.581245,294.969513 58.645164,293.673096 51.902676,291.711304 
	C37.023872,287.382172 36.752216,287.182404 39.826603,271.983185 
	C44.967438,246.567856 49.407986,220.930817 56.210861,195.950165 
	C66.899063,156.702347 86.479584,122.300201 117.464706,95.111023 
	C119.215569,93.574654 121.046013,92.127380 122.869247,90.676117 
	C123.373016,90.275116 123.984505,90.009460 124.963081,89.438828 
	C127.652206,92.830940 130.282761,96.200996 132.974380,99.521576 
	C134.231689,101.072662 135.348709,102.940926 136.972580,103.957069 
	C145.071762,109.025200 146.044479,116.005043 142.452957,124.834549 
	C141.975113,129.253357 141.947525,133.104324 141.919937,136.955307 
M122.314903,161.116745 
	C121.653152,161.586151 120.750656,161.909851 120.365311,162.546539 
	C113.157982,174.454712 105.316498,186.050980 99.089951,198.456451 
	C94.704491,207.193848 92.530838,217.041397 89.369621,226.393280 
	C89.845322,226.578995 90.321022,226.764725 90.796722,226.950455 
	C91.556992,225.574036 92.389290,224.232056 93.066376,222.815857 
	C99.655014,209.034882 106.176231,195.221527 112.805237,181.460052 
	C116.111511,174.596420 119.601410,167.821243 123.180565,160.919022 
	C123.180565,160.919022 123.188675,160.684570 123.188675,160.684570 
	C123.188675,160.684570 122.993660,160.991455 122.314903,161.116745 
M79.235634,198.750153 
	C86.685860,179.184769 92.978561,159.122772 104.302139,141.228897 
	C105.659027,139.084702 106.146332,136.390244 107.036697,133.950821 
	C106.437866,133.632126 105.839035,133.313431 105.240204,132.994736 
	C102.112038,136.741486 98.692909,140.284515 95.903526,144.268463 
	C79.386589,167.858932 70.198364,194.491592 64.295952,222.366089 
	C63.182652,227.623703 63.639347,233.213760 63.371593,238.650421 
	C63.995052,238.738342 64.618507,238.826263 65.241966,238.914169 
	C69.828606,225.776505 74.415253,212.638840 79.235634,198.750153 
z" data-index="4" style="opacity: 1;"></path>
<path fill="#864A21" opacity="1.000000" stroke="none" d="
M412.884979,119.946373 
	C412.935486,120.676453 412.985992,121.406525 413.024902,122.972458 
	C413.008759,125.806816 412.710724,127.858681 413.062317,129.792450 
	C413.744781,133.546509 414.792206,137.234222 415.688416,140.949432 
	C417.747925,152.042191 419.807404,163.134964 421.963196,174.746292 
	C408.088501,178.259796 394.306305,181.749878 379.902588,185.397354 
	C378.432892,180.270844 377.161621,175.519638 375.708801,170.824615 
	C369.886749,152.009933 363.133057,133.624802 351.125549,117.658806 
	C338.918762,101.427849 322.290375,93.800430 302.429962,91.827713 
	C289.020416,90.495758 275.950531,92.066498 262.902069,94.764786 
	C262.123505,94.925781 261.304291,94.890099 259.594208,93.862671 
	C264.858398,88.683739 269.758270,83.059250 275.451172,78.404694 
	C297.516998,60.363483 322.833038,48.920437 351.176544,46.616043 
	C366.210419,45.393753 381.918182,44.584583 396.491821,51.911873 
	C404.861359,56.119862 409.228363,62.571484 409.973938,71.395012 
	C411.001770,83.559937 411.356628,95.781738 412.005341,108.899223 
	C412.302246,113.194977 412.593597,116.570671 412.884979,119.946373 
M377.193176,114.329178 
	C385.952301,127.534187 389.702850,142.769882 394.705200,157.622818 
	C394.945068,150.037537 394.930206,142.549591 393.946838,135.191055 
	C391.176056,114.456757 384.431244,95.541908 367.908844,81.364853 
	C356.228088,71.342148 342.653595,67.718460 327.590790,69.218025 
	C325.029816,69.472977 322.582550,70.870644 320.082764,71.740379 
	C320.152649,72.233444 320.222534,72.726501 320.292419,73.219566 
	C323.410400,74.061661 326.564911,74.788536 329.640381,75.764458 
	C350.264374,82.308899 365.137909,96.033142 377.193176,114.329178 
z" data-index="5" style="opacity: 1;"></path>
<path fill="#874A21" opacity="1.000000" stroke="none" d="
M206.037674,189.123276 
	C206.035461,195.729416 206.033234,202.335571 206.024155,209.873444 
	C206.012756,213.245651 205.665756,215.746994 206.086014,218.112000 
	C206.679062,221.449524 207.839767,224.686203 208.757812,227.965973 
	C207.830780,228.850281 207.044632,230.229309 205.954224,230.539810 
	C197.966217,232.814468 189.917236,234.874954 181.231796,237.176743 
	C171.076202,215.357468 161.408295,193.393906 156.377838,169.183807 
	C156.425232,166.343872 156.153046,164.076569 156.005768,161.801193 
	C155.319687,151.201508 154.668182,140.599579 154.235840,129.712616 
	C155.832764,124.538544 157.198135,119.650307 158.563507,114.762077 
	C158.563507,114.762077 158.597885,114.613037 159.046021,114.707916 
	C160.183365,114.064064 160.872589,113.325333 161.561798,112.586609 
	C161.561798,112.586601 161.865479,112.599846 162.089722,112.623566 
	C162.528778,112.382271 162.743607,112.117241 162.958420,111.852211 
	C162.958420,111.852211 162.961502,111.926445 163.356155,111.940620 
	C165.377701,111.740540 167.027328,111.633415 168.627594,111.293701 
	C175.966202,109.735779 183.304916,108.171448 190.603180,106.439201 
	C191.519669,106.221672 192.196869,104.995979 192.984955,104.237404 
	C193.435455,104.160942 193.885971,104.084480 195.016266,104.269257 
	C204.902863,104.744812 214.110397,105.133438 223.316116,105.094490 
	C227.462540,105.076965 233.611404,107.515915 234.204147,110.175995 
	C234.204147,110.175995 234.259628,110.159630 233.883759,110.185822 
	C232.759521,111.541183 232.011139,112.870361 231.262756,114.199539 
	C231.262756,114.199539 231.307266,114.226189 230.942230,114.242882 
	C228.777588,117.561165 226.977951,120.862747 225.178314,124.164337 
	C225.178329,124.164337 225.241608,124.135391 224.876953,124.170006 
	C222.773560,127.854057 221.034805,131.503494 219.296066,135.152924 
	C219.296066,135.152924 219.454010,135.228210 219.027679,135.292847 
	C218.105057,137.278564 217.608780,139.199646 217.112503,141.120712 
	C217.112503,141.120712 217.115921,141.045486 216.825974,141.209229 
	C215.071091,145.950424 213.606140,150.527878 212.141190,155.105316 
	C212.141190,155.105316 212.085129,155.054764 211.847076,155.287994 
	C207.703156,166.382217 205.755981,177.567963 206.037674,189.123276 
M176.001831,143.409851 
	C176.001831,137.275284 176.001831,131.140701 176.001831,123.684799 
	C159.732147,144.342041 169.724487,189.593338 186.833176,202.715546 
	C184.152893,192.804977 181.005661,183.547012 179.254578,174.032089 
	C177.459702,164.279221 177.031067,154.274933 176.001831,143.409851 
M194.130585,125.712822 
	C182.596115,144.733215 189.074219,185.044617 199.195206,189.944763 
	C195.181274,166.124908 197.274750,142.619797 200.322586,119.123421 
	C199.801117,118.988220 199.279648,118.853020 198.758179,118.717819 
	C197.326553,120.830513 195.894943,122.943199 194.130585,125.712822 
M187.506180,204.459839 
	C187.506180,204.459839 187.527283,204.511581 187.506180,204.459839 
z" data-index="6" style="opacity: 1;"></path>
<path fill="#884B21" opacity="1.000000" stroke="none" d="
M26.740801,237.806396 
	C26.466324,237.517731 26.191845,237.229080 25.918137,236.294861 
	C25.649923,234.206757 25.730225,232.571732 25.057825,231.351501 
	C18.488605,219.430084 18.121012,206.708618 19.784813,193.640244 
	C20.187725,190.475555 20.003941,187.236160 20.089943,184.031128 
	C24.826870,161.156631 36.461166,141.704147 50.400345,123.461594 
	C65.989250,103.060005 84.804443,86.064919 105.761559,71.295990 
	C110.082672,68.250816 112.636543,68.561043 115.108986,73.050339 
	C116.215256,75.059036 117.716240,76.850349 119.146797,78.895721 
	C114.377136,83.129631 109.646812,87.012466 105.272652,91.261917 
	C72.811630,122.797455 53.355354,161.597977 42.306351,204.973572 
	C39.766857,214.942978 38.057049,225.123734 35.532730,235.687775 
	C34.277210,237.851624 33.454376,239.534912 32.615997,241.249985 
	C31.215073,240.670822 29.474503,239.951218 27.733932,239.231628 
	C27.733932,239.231628 27.774714,239.043060 27.697758,238.821930 
	C27.327467,238.335983 27.034134,238.071198 26.740801,237.806396 
z" data-index="7" style="opacity: 1;"></path>
<path fill="#874A21" opacity="1.000000" stroke="none" d="
M444.514038,376.620056 
	C443.019958,362.912048 441.528320,349.203735 440.030823,335.496094 
	C439.091797,326.900787 438.226868,318.296112 437.158356,309.716827 
	C436.743713,306.387848 437.286438,303.798401 439.703125,301.145630 
	C443.106354,297.409851 445.839966,293.064056 449.310883,288.369080 
	C451.757172,297.128998 453.808502,305.267944 456.305725,313.267670 
	C463.693420,336.934021 473.399963,359.457489 489.761444,378.522247 
	C491.718903,380.803101 490.856873,382.339386 489.287384,384.090057 
	C478.131714,396.533539 464.183990,404.005432 447.337555,407.801117 
	C446.868347,403.238617 446.435974,399.034454 446.273712,394.070923 
	C445.867218,387.747711 445.190643,382.183868 444.514038,376.620056 
z" data-index="8" style="opacity: 1;"></path>
<path fill="#874A21" opacity="1.000000" stroke="none" d="
M80.252617,375.046661 
	C75.967064,352.601562 71.681511,330.156433 67.356537,307.504913 
	C67.024307,307.670288 67.299911,307.431641 67.597603,307.399841 
	C74.105560,306.705200 75.941612,310.287109 77.835487,316.093170 
	C81.001549,325.799530 86.110291,334.859894 90.147079,344.300903 
	C91.621727,347.749786 92.520645,351.471619 93.428696,355.131805 
	C101.475563,387.567047 109.467354,420.016022 117.465096,452.463440 
	C117.773521,453.714783 117.977692,454.991791 118.372192,456.966278 
	C105.539001,456.335480 93.384148,455.179932 82.469727,448.757233 
	C81.163322,447.988464 80.682343,445.253845 80.468254,443.357117 
	C80.270866,441.608368 80.947548,439.760956 81.749313,437.335541 
	C82.203552,432.824188 82.147697,428.934326 82.091850,425.044434 
	C82.072678,424.581299 82.053497,424.118134 82.451424,423.159668 
	C83.241234,421.635254 83.961548,420.595917 83.931450,419.578766 
	C83.698784,411.715912 83.320976,403.857422 82.993561,395.552307 
	C82.390121,392.082520 81.781250,389.057953 81.172379,386.033386 
	C81.119194,385.262360 81.066010,384.491302 81.277069,383.031311 
	C81.111748,379.910461 80.682182,377.478546 80.252617,375.046661 
z" data-index="9" style="opacity: 1; visibility: visible; fill: rgb(135, 74, 33);"></path>
<path fill="#FBE038" opacity="1.000000" stroke="none" d="
M122.369362,252.232666 
	C116.558327,253.740234 111.143669,255.139557 104.876915,256.759094 
	C114.236603,228.477631 128.529755,204.110458 146.960419,181.991135 
	C154.495438,201.276184 161.925964,220.293808 169.612686,239.967163 
	C154.328751,243.933502 138.547241,248.028946 122.369362,252.232666 
z" data-index="10" style="opacity: 1;"></path>
<path fill="#874A21" opacity="1.000000" stroke="none" d="
M176.980957,42.051796 
	C202.349945,44.662430 224.987305,53.300072 243.092285,72.431412 
	C243.121490,72.860504 242.907516,73.114357 242.907516,73.114357 
	C231.128769,69.788414 219.534195,64.911171 207.529785,63.485851 
	C187.566605,61.115566 167.404129,61.823208 147.855240,67.846573 
	C143.258911,69.262787 138.749908,70.973526 134.123428,72.273659 
	C132.810425,72.642639 130.593506,72.607010 129.863266,71.793968 
	C123.888977,65.142334 118.168503,58.262718 111.973114,50.985077 
	C123.532303,45.951778 135.716782,43.473228 148.932022,42.265411 
	C158.789352,42.368408 167.885147,42.210102 176.980957,42.051796 
z" data-index="11" style="opacity: 1;"></path>
<path fill="#874A21" opacity="1.000000" stroke="none" d="
M425.280304,119.749016 
	C442.039825,148.488281 463.418915,173.318817 489.510284,194.499802 
	C481.306519,206.661530 470.019867,213.588837 457.172333,219.699875 
	C456.039825,214.044632 455.324097,208.968430 453.968964,204.069107 
	C452.112518,197.357529 450.015350,190.688232 447.566345,184.171814 
	C445.220459,177.929794 441.704681,172.687042 432.500397,174.320770 
	C429.807983,156.318085 427.186920,138.792450 424.738708,120.671066 
	C424.911621,120.075310 425.280304,119.749016 425.280304,119.749016 
z" data-index="12" style="opacity: 1;"></path>
<path fill="#874A21" opacity="1.000000" stroke="none" d="
M197.075943,92.630447 
	C182.863327,94.635292 168.890320,97.512344 155.718689,103.523834 
	C154.609879,104.029892 152.433548,104.018204 151.726242,103.295166 
	C145.969940,97.410660 140.445587,91.299263 134.850632,85.256927 
	C135.062042,84.561760 135.273453,83.866592 135.484863,83.171417 
	C144.568481,80.775131 153.545578,77.757515 162.768906,76.176369 
	C170.341614,74.878204 178.301712,75.928741 185.922455,74.803146 
	C200.714615,72.618332 214.685776,75.957428 228.595093,79.965416 
	C233.514572,81.382965 238.294266,83.527428 242.818039,85.939606 
	C244.313965,86.737274 245.798340,89.576103 245.534882,91.196663 
	C245.102905,93.853752 243.126266,95.521835 239.629669,94.801674 
	C234.755325,93.797729 229.739197,93.482048 224.179901,92.424988 
	C215.033936,91.795868 206.492020,91.601791 197.949036,91.482521 
	C197.663422,91.478539 197.367218,92.230736 197.075943,92.630447 
z" data-index="13"></path>
<path fill="#874A21" opacity="1.000000" stroke="none" d="
M350.073730,34.647755 
	C325.325165,37.748119 302.241089,45.374306 281.194366,59.599846 
	C280.407745,58.527546 280.087555,57.663864 279.767395,56.800182 
	C279.767395,56.800182 279.915405,56.816097 280.119873,56.748589 
	C280.535614,56.418610 280.746887,56.156143 280.958160,55.893669 
	C280.958160,55.893665 280.975159,55.962227 281.149902,55.821644 
	C281.535797,55.418648 281.746948,55.156239 281.958130,54.893826 
	C281.958130,54.893826 281.992462,54.954220 282.181580,54.774162 
	C282.555817,54.249969 282.740906,53.905830 282.926025,53.561695 
	C299.095551,38.222698 318.494110,28.579935 339.527924,22.092154 
	C347.595703,19.603678 355.939941,17.344843 364.298126,16.639666 
	C373.908020,15.828881 383.736267,16.256380 393.350494,17.273069 
	C401.078857,18.090330 402.802155,20.582163 403.516083,28.295345 
	C403.926056,32.724682 403.590393,37.223042 403.590393,41.596390 
	C394.935364,39.383919 386.345886,37.188198 377.195068,34.541142 
	C368.063660,33.877823 359.493713,33.654503 350.922546,33.504910 
	C350.646332,33.500088 350.356964,34.249786 350.073730,34.647755 
z" data-index="14" style="opacity: 1; visibility: visible; fill: rgb(135, 74, 33);"></path>
<path fill="#47B6D5" opacity="1.000000" stroke="none" d="
M204.944702,290.994507 
	C205.206085,292.037231 205.883224,293.178253 205.663589,294.107239 
	C203.774323,302.098114 201.742279,310.055725 199.675049,318.002991 
	C199.544647,318.504272 198.763153,318.836182 197.686737,319.605927 
	C193.524857,320.907898 189.960846,321.850800 186.396820,322.793732 
	C189.237595,313.104065 192.078369,303.414368 195.457642,293.341553 
	C198.979004,292.303772 201.961853,291.649139 204.944702,290.994507 
z" data-index="15"></path>
<path fill="#A2D639" opacity="1.000000" stroke="none" d="
M186.172791,323.123596 
	C189.960846,321.850800 193.524857,320.907898 197.452744,319.888977 
	C197.287369,323.335022 196.942352,326.897369 196.182251,330.368835 
	C195.230270,334.716522 194.031433,339.017426 192.766144,343.287231 
	C191.417404,347.838715 186.062561,350.644562 181.780212,348.718414 
	C180.611389,348.192657 179.389511,345.566376 179.717636,344.299133 
	C181.534332,337.283142 183.822281,330.389191 186.172791,323.123596 
z" data-index="16"></path>
<path fill="#F75FD5" opacity="1.000000" stroke="none" d="
M205.117737,290.667450 
	C201.961853,291.649139 198.979004,292.303772 195.614838,293.004761 
	C197.405426,284.728394 199.517303,276.388977 201.817825,268.101959 
	C202.140869,266.938202 203.183395,265.637482 204.248215,265.084991 
	C206.618164,263.855316 209.213120,263.059265 211.716370,262.086487 
	C211.772278,264.375641 212.267334,266.758881 211.800980,268.936188 
	C210.449585,275.245605 208.758804,281.484894 207.076874,287.718170 
	C206.816635,288.682678 205.902512,289.470734 205.117737,290.667450 
z" data-index="17"></path>
<path fill="#A1D539" opacity="1.000000" stroke="none" d="
M405.807617,265.815002 
	C403.472260,274.164734 401.553558,282.674927 398.451233,290.729187 
	C397.828156,292.346802 392.705505,292.231232 389.657501,292.914795 
	C389.349152,290.700562 388.309326,288.278259 388.868958,286.310944 
	C390.577240,280.305908 392.901337,274.476044 395.524567,268.264343 
	C399.311462,267.238800 402.559540,266.526917 405.807617,265.815002 
z" data-index="18"></path>
<path fill="#F75FD5" opacity="1.000000" stroke="none" d="
M402.076294,244.839203 
	C404.049561,238.548676 405.864746,232.201691 408.080933,225.997955 
	C408.868073,223.794495 410.220581,221.279068 412.073883,220.129242 
	C413.622101,219.168701 416.589142,219.378876 418.325043,220.259262 
	C419.352783,220.780472 419.877197,223.778275 419.472961,225.368881 
	C418.093811,230.794876 416.202515,236.090698 413.900757,241.763062 
	C409.555328,243.006332 405.815826,243.922775 402.076294,244.839203 
z" data-index="19"></path>
<path fill="#46B7D8" opacity="1.000000" stroke="none" d="
M406.039246,265.535217 
	C402.559540,266.526917 399.311462,267.238800 395.669250,267.911102 
	C397.232300,261.100769 399.189423,254.330017 401.742462,247.237061 
	C405.272552,246.080688 408.185364,245.148224 411.160278,244.501282 
	C411.707916,244.382187 412.507111,245.420074 413.190216,245.923935 
	C410.883789,252.367783 408.577332,258.811615 406.039246,265.535217 
z" data-index="20" style="opacity: 1;"></path>
<path fill="#8B4C22" opacity="1.000000" stroke="none" d="
M19.977024,184.411026 
	C20.003941,187.236160 20.187725,190.475555 19.784813,193.640244 
	C18.121012,206.708618 18.488605,219.430084 25.057825,231.351501 
	C25.730225,232.571732 25.649923,234.206757 25.894630,236.083633 
	C17.908352,225.542648 16.313608,213.037476 17.410000,200.010712 
	C17.839743,194.904755 19.023659,189.862305 19.977024,184.411026 
z" data-index="21" style="opacity: 1;"></path>
<path fill="#8B4C22" opacity="1.000000" stroke="none" d="
M234.505066,110.004051 
	C233.611404,107.515915 227.462540,105.076965 223.316116,105.094490 
	C214.110397,105.133438 204.902863,104.744812 195.359955,104.293365 
	C209.051895,101.978912 222.923935,103.111145 237.613052,105.689720 
	C236.368362,107.526497 235.587173,108.679298 234.505066,110.004051 
z" data-index="22"></path>
<path fill="#924F23" opacity="1.000000" stroke="none" d="
M154.004303,129.998459 
	C154.668182,140.599579 155.319687,151.201508 156.005768,161.801193 
	C156.153046,164.076569 156.425232,166.343872 156.370361,168.791046 
	C152.915237,156.437744 151.668365,143.750717 153.295563,130.428802 
	C153.587524,130.003754 154.004303,129.998459 154.004303,129.998459 
z" data-index="23"></path>
<path fill="#8B4C22" opacity="1.000000" stroke="none" d="
M192.581146,104.217484 
	C192.196869,104.995979 191.519669,106.221672 190.603180,106.439201 
	C183.304916,108.171448 175.966202,109.735779 168.627594,111.293701 
	C167.027328,111.633415 165.377701,111.740540 163.320221,111.931152 
	C172.652222,109.337524 182.414780,106.767540 192.581146,104.217484 
z" data-index="24"></path>
<path fill="#985425" opacity="1.000000" stroke="none" d="
M82.988129,395.997559 
	C83.320976,403.857422 83.698784,411.715912 83.931450,419.578766 
	C83.961548,420.595917 83.241234,421.635254 82.516953,422.817261 
	C82.124336,414.290131 82.083298,405.610138 82.303329,396.464081 
	C82.564407,395.998047 82.988129,395.997559 82.988129,395.997559 
z" data-index="25" style="opacity: 1; visibility: visible; fill: rgb(135, 74, 33); stroke: rgb(135, 74, 33);"></path>
<path fill="#925024" opacity="1.000000" stroke="none" d="
M206.350067,188.861206 
	C205.755981,177.567963 207.703156,166.382217 211.880249,155.269989 
	C210.321808,166.212219 208.492142,177.405685 206.350067,188.861206 
z" data-index="26"></path>
<path fill="#8A4B21" opacity="1.000000" stroke="none" d="
M176.561462,41.982872 
	C167.885147,42.210102 158.789352,42.368408 149.357452,42.289040 
	C158.061569,42.005562 167.101776,41.959755 176.561462,41.982872 
z" data-index="27"></path>
<path fill="#925023" opacity="1.000000" stroke="none" d="
M279.464386,56.927849 
	C280.087555,57.663864 280.407745,58.527546 280.866821,59.703865 
	C277.955719,62.333862 274.905670,64.651215 271.326355,66.902412 
	C270.639648,66.711609 270.482239,66.586975 270.324829,66.462334 
	C273.270355,63.326729 276.215851,60.191120 279.464386,56.927849 
z" data-index="28" style="opacity: 1; visibility: visible; fill: rgb(135, 74, 33);"></path>
<path fill="#A05828" opacity="1.000000" stroke="none" d="
M350.485657,34.680702 
	C350.356964,34.249786 350.646332,33.500088 350.922546,33.504910 
	C359.493713,33.654503 368.063660,33.877823 376.791138,34.434883 
	C368.264862,34.757858 359.581238,34.735756 350.485657,34.680702 
z" data-index="29"></path>
<path fill="#8B4C22" opacity="1.000000" stroke="none" d="
M27.829168,239.552979 
	C29.474503,239.951218 31.215073,240.670822 32.615997,241.249985 
	C33.454376,239.534912 34.277210,237.851624 35.414513,236.090424 
	C35.287861,239.199509 34.846741,242.386505 34.236511,246.795273 
	C31.585266,243.888290 29.754835,241.881302 27.829168,239.552979 
z" data-index="30" style="opacity: 1;"></path>
<path fill="#A05727" opacity="1.000000" stroke="none" d="
M197.483154,92.656624 
	C197.367218,92.230736 197.663422,91.478539 197.949036,91.482521 
	C206.492020,91.601791 215.033936,91.795868 223.748474,92.304459 
	C215.244064,92.648102 206.567215,92.665451 197.483154,92.656624 
z" data-index="31"></path>
<path fill="#8B4C22" opacity="1.000000" stroke="none" d="
M154.235840,129.712616 
	C154.004303,129.998459 153.587524,130.003754 153.379181,130.006592 
	C154.766571,125.004128 156.362320,119.998817 158.260788,114.877792 
	C157.198135,119.650307 155.832764,124.538544 154.235840,129.712616 
z" data-index="32"></path>
<path fill="#935125" opacity="1.000000" stroke="none" d="
M444.409882,377.002594 
	C445.190643,382.183868 445.867218,387.747711 446.312866,393.635681 
	C445.489868,388.434906 444.897797,382.910034 444.409882,377.002594 
z" data-index="33"></path>
<path fill="#945125" opacity="1.000000" stroke="none" d="
M208.732071,227.562378 
	C207.839767,224.686203 206.679062,221.449524 206.086014,218.112000 
	C205.665756,215.746994 206.012756,213.245651 206.029205,210.333221 
	C206.929535,215.627090 207.817932,221.392929 208.732071,227.562378 
z" data-index="34"></path>
<path fill="#985325" opacity="1.000000" stroke="none" d="
M415.714630,140.542694 
	C414.792206,137.234222 413.744781,133.546509 413.062317,129.792450 
	C412.710724,127.858681 413.008759,125.806816 413.024506,123.339195 
	C413.937408,128.625366 414.839111,134.380646 415.714630,140.542694 
z" data-index="35"></path>
<path fill="#624336" opacity="1.000000" stroke="none" d="
M413.417633,245.670212 
	C412.507111,245.420074 411.707916,244.382187 411.160278,244.501282 
	C408.185364,245.148224 405.272552,246.080688 401.917419,246.936066 
	C401.615387,246.483658 401.734283,246.010025 401.964752,245.187790 
	C405.815826,243.922775 409.555328,243.006332 413.685760,242.052216 
	C413.932831,243.148499 413.788940,244.282501 413.417633,245.670212 
z" data-index="36"></path>
<path fill="#8B4C22" opacity="1.000000" stroke="none" d="
M212.424347,154.888153 
	C213.606140,150.527878 215.071091,145.950424 216.863037,141.215836 
	C215.695877,145.596115 214.201706,150.133545 212.424347,154.888153 
z" data-index="37"></path>
<path fill="#8B4C22" opacity="1.000000" stroke="none" d="
M219.603928,135.017822 
	C221.034805,131.503494 222.773560,127.854057 224.887070,124.203293 
	C223.478500,127.762215 221.695145,131.322479 219.603928,135.017822 
z" data-index="38"></path>
<path fill="#8B4C22" opacity="1.000000" stroke="none" d="
M225.465637,123.985504 
	C226.977951,120.862747 228.777588,117.561165 230.939438,114.268661 
	C229.452087,117.454063 227.602509,120.630379 225.465637,123.985504 
z" data-index="39"></path>
<path fill="#9C5526" opacity="1.000000" stroke="none" d="
M82.993561,395.552307 
	C82.988129,395.997559 82.564407,395.998047 82.352554,395.997589 
	C81.778900,392.950928 81.417084,389.904694 81.113831,386.445923 
	C81.781250,389.057953 82.390121,392.082520 82.993561,395.552307 
z" data-index="40"></path>
<path fill="#9D5728" opacity="1.000000" stroke="none" d="
M141.969757,136.512894 
	C141.947525,133.104324 141.975113,129.253357 142.328705,125.236320 
	C142.443008,128.737000 142.231293,132.403748 141.969757,136.512894 
z" data-index="41"></path>
<path fill="#985425" opacity="1.000000" stroke="none" d="
M82.027573,425.500702 
	C82.147697,428.934326 82.203552,432.824188 82.017982,437.095093 
	C81.838806,433.636383 81.901054,429.796692 82.027573,425.500702 
z" data-index="42"></path>
<path fill="#9C5526" opacity="1.000000" stroke="none" d="
M80.227661,375.440002 
	C80.682182,377.478546 81.111748,379.910461 81.316071,382.646149 
	C80.794792,380.577728 80.498749,378.205536 80.227661,375.440002 
z" data-index="43"></path>
<path fill="#9D5728" opacity="1.000000" stroke="none" d="
M141.930573,150.484558 
	C141.734634,147.521042 141.597000,144.106812 141.690002,140.370438 
	C141.943375,143.376816 141.966125,146.705338 141.930573,150.484558 
z" data-index="44"></path>
<path fill="#985325" opacity="1.000000" stroke="none" d="
M412.984772,119.505646 
	C412.593597,116.570671 412.302246,113.194977 412.018494,109.361771 
	C412.378906,112.291145 412.731720,115.678032 412.984772,119.505646 
z" data-index="45"></path>
<path fill="#8B4C22" opacity="1.000000" stroke="none" d="
M217.384796,140.892685 
	C217.608780,139.199646 218.105057,137.278564 219.002533,135.376648 
	C218.821503,137.152100 218.239288,138.908371 217.384796,140.892685 
z" data-index="46"></path>
<path fill="#8B4C22" opacity="1.000000" stroke="none" d="
M231.552795,114.067505 
	C232.011139,112.870361 232.759521,111.541183 233.885818,110.214676 
	C233.456757,111.456718 232.649780,112.696091 231.552795,114.067505 
z" data-index="47"></path>
<path fill="#9D5728" opacity="1.000000" stroke="none" d="
M143.634583,161.549622 
	C143.222794,159.885696 142.833237,157.781693 142.665146,155.370850 
	C143.143341,157.079178 143.400085,159.094376 143.634583,161.549622 
z" data-index="48"></path>
<path fill="#8B4C22" opacity="1.000000" stroke="none" d="
M161.248047,112.582352 
	C160.872589,113.325333 160.183365,114.064064 159.122284,114.702103 
	C159.478363,113.926971 160.206329,113.252533 161.248047,112.582352 
z" data-index="49"></path>
<path fill="#874A21" opacity="1.000000" stroke="none" d="
M243.228180,72.733315 
	C243.557266,72.943352 243.779678,73.280571 244.002090,73.617790 
	C243.711578,73.573761 243.421051,73.529724 243.019028,73.300026 
	C242.907516,73.114357 243.121490,72.860504 243.228180,72.733315 
z" data-index="50"></path>
<path fill="#874A21" opacity="1.000000" stroke="none" d="
M424.723572,120.234200 
	C424.516296,119.866295 424.497040,119.339508 424.477783,118.812714 
	C424.694580,118.988953 424.911346,119.165199 425.204224,119.545235 
	C425.280304,119.749016 424.911621,120.075310 424.723572,120.234200 
z" data-index="51"></path>
<path fill="#8B4C22" opacity="1.000000" stroke="none" d="
M26.843773,238.112839 
	C27.034134,238.071198 27.327467,238.335983 27.792751,238.838669 
	C27.625381,238.857452 27.286062,238.638367 26.843773,238.112839 
z" data-index="52"></path>
<path fill="#925023" opacity="1.000000" stroke="none" d="
M281.668640,54.931446 
	C281.746948,55.156239 281.535797,55.418648 281.114594,55.822861 
	C281.062775,55.632793 281.220978,55.300930 281.668640,54.931446 
z" data-index="53"></path>
<path fill="#925023" opacity="1.000000" stroke="none" d="
M280.668610,55.931305 
	C280.746887,56.156143 280.535614,56.418610 280.114075,56.822792 
	C280.062256,56.632645 280.220673,56.300793 280.668610,55.931305 
z" data-index="54"></path>
<path fill="#925023" opacity="1.000000" stroke="none" d="
M282.667603,53.732895 
	C282.740906,53.905830 282.555817,54.249969 282.149475,54.787422 
	C282.088562,54.621857 282.248871,54.262974 282.667603,53.732895 
z" data-index="55"></path>
<path fill="#8B4C22" opacity="1.000000" stroke="none" d="
M162.665436,111.909256 
	C162.743607,112.117241 162.528778,112.382271 162.090576,112.775551 
	C162.035614,112.591301 162.204025,112.278801 162.665436,111.909256 
z" data-index="56"></path>
<path fill="#925023" opacity="1.000000" stroke="none" d="
M269.520966,67.510979 
	C269.634338,67.231461 269.794891,66.982361 270.163727,66.613007 
	C270.482239,66.586975 270.639648,66.711609 271.018433,67.040634 
	C271.126770,67.571960 270.919983,67.821121 270.231262,67.913429 
	C269.843048,67.834366 269.520966,67.510979 269.520966,67.510979 
z" data-index="57" style="opacity: 1;"></path>
<path fill="#925023" opacity="1.000000" stroke="none" d="
M269.999878,68.000153 
	C269.954834,68.425163 269.752960,68.684387 269.212036,68.908783 
	C268.872955,68.873955 268.683594,68.678642 268.683594,68.678642 
	C268.736115,68.339439 268.887787,68.052719 269.329773,67.664726 
	C269.520966,67.510979 269.843048,67.834366 269.999878,68.000153 
z" data-index="58"></path>
<path fill="#925023" opacity="1.000000" stroke="none" d="
M268.967529,68.971687 
	C268.871277,69.342430 268.680420,69.615448 268.253479,69.951569 
	C268.017365,70.014679 268.055115,70.056610 268.055115,70.056610 
	C268.108765,69.707939 268.162384,69.359261 268.449799,68.844612 
	C268.683594,68.678642 268.872955,68.873955 268.967529,68.971687 
z" data-index="59"></path>
<path fill="#925023" opacity="1.000000" stroke="none" d="
M267.999512,69.992828 
	C267.885345,69.972931 267.789032,69.974892 267.873901,70.016731 
	C268.055115,70.056610 268.017365,70.014679 267.999512,69.992828 
z" data-index="60"></path>
<path fill="#040401" opacity="1.000000" stroke="none" d="
M213.960526,427.007904 
	C205.592789,422.884827 197.477600,419.080780 189.725189,414.643005 
	C188.035324,413.675659 186.352722,410.025879 186.899460,408.332306 
	C188.412720,403.645020 192.114243,405.765320 195.139160,406.994659 
	C203.274185,410.300751 211.127853,414.621399 219.539734,416.865753 
	C248.931732,424.707794 278.368317,424.425049 307.562988,415.346497 
	C308.831085,414.952148 310.304596,414.166443 311.401459,414.496552 
	C313.560455,415.146393 316.596649,416.015259 317.248383,417.616394 
	C317.843719,419.078949 316.284882,422.862366 314.783966,423.489471 
	C307.474121,426.543579 300.034119,429.730225 292.320770,431.266571 
	C281.780762,433.365936 270.938538,435.149414 260.250641,435.020020 
	C244.669815,434.831299 229.172791,432.474182 213.960526,427.007904 
z" data-index="61"></path>
<path fill="#9E592A" opacity="1.000000" stroke="none" d="
M79.118759,199.125656 
	C74.415253,212.638840 69.828606,225.776505 65.241966,238.914169 
	C64.618507,238.826263 63.995052,238.738342 63.371593,238.650421 
	C63.639347,233.213760 63.182652,227.623703 64.295952,222.366089 
	C70.198364,194.491592 79.386589,167.858932 95.903526,144.268463 
	C98.692909,140.284515 102.112038,136.741486 105.240204,132.994736 
	C105.839035,133.313431 106.437866,133.632126 107.036697,133.950821 
	C106.146332,136.390244 105.659027,139.084702 104.302139,141.228897 
	C92.978561,159.122772 86.685860,179.184769 79.118759,199.125656 
z" data-index="62" style="opacity: 1; visibility: visible; fill: rgb(158, 89, 42);"></path>
<path fill="#9E592A" opacity="1.000000" stroke="none" d="
M123.008240,161.006042 
	C119.601410,167.821243 116.111511,174.596420 112.805237,181.460052 
	C106.176231,195.221527 99.655014,209.034882 93.066376,222.815857 
	C92.389290,224.232056 91.556992,225.574036 90.796722,226.950455 
	C90.321022,226.764725 89.845322,226.578995 89.369621,226.393280 
	C92.530838,217.041397 94.704491,207.193848 99.089951,198.456451 
	C105.316498,186.050980 113.157982,174.454712 120.365311,162.546539 
	C120.750656,161.909851 121.653152,161.586151 122.657455,161.058350 
	C123.000000,160.999954 123.008240,161.006042 123.008240,161.006042 
z" data-index="63" style="opacity: 1; visibility: visible; fill: rgb(158, 89, 42);"></path>
<path fill="#9E592A" opacity="1.000000" stroke="none" d="
M122.996826,160.995697 
	C122.993660,160.991455 123.188675,160.684570 123.188675,160.684570 
	C123.188675,160.684570 123.180565,160.919022 123.094406,160.962524 
	C123.008240,161.006042 123.000000,160.999954 122.996826,160.995697 
z" data-index="64"></path>
<path fill="#9D592A" opacity="1.000000" stroke="none" d="
M377.010620,114.016571 
	C365.137909,96.033142 350.264374,82.308899 329.640381,75.764458 
	C326.564911,74.788536 323.410400,74.061661 320.292419,73.219566 
	C320.222534,72.726501 320.152649,72.233444 320.082764,71.740379 
	C322.582550,70.870644 325.029816,69.472977 327.590790,69.218025 
	C342.653595,67.718460 356.228088,71.342148 367.908844,81.364853 
	C384.431244,95.541908 391.176056,114.456757 393.946838,135.191055 
	C394.930206,142.549591 394.945068,150.037537 394.705200,157.622818 
	C389.702850,142.769882 385.952301,127.534187 377.010620,114.016571 
z" data-index="65" style="opacity: 1; visibility: visible; fill: rgb(158, 89, 42);"></path>
<path fill="#9F5A2A" opacity="1.000000" stroke="none" d="
M176.003143,143.895264 
	C177.031067,154.274933 177.459702,164.279221 179.254578,174.032089 
	C181.005661,183.547012 184.152893,192.804977 186.833176,202.715546 
	C169.724487,189.593338 159.732147,144.342041 176.001831,123.684799 
	C176.001831,131.140701 176.001831,137.275284 176.003143,143.895264 
z" data-index="66" style="opacity: 1; visibility: visible; fill: rgb(158, 89, 42);"></path>
<path fill="#9D592A" opacity="1.000000" stroke="none" d="
M194.296951,125.384354 
	C195.894943,122.943199 197.326553,120.830513 198.758179,118.717819 
	C199.279648,118.853020 199.801117,118.988220 200.322586,119.123421 
	C197.274750,142.619797 195.181274,166.124908 199.195206,189.944763 
	C189.074219,185.044617 182.596115,144.733215 194.296951,125.384354 
z" data-index="67" style="opacity: 1; visibility: visible; fill: rgb(158, 89, 42);"></path>
<path fill="#9F5A2A" opacity="1.000000" stroke="none" d="
M187.516724,204.485718 
	C187.527283,204.511581 187.506180,204.459839 187.516724,204.485718 
z" data-index="68"></path>
</svg>